<svg aria-hidden="true" style="position: absolute; width: 0; height: 0; overflow: hidden;" version="1.1" xmlns="http://www.w3.org/2000/svg" xmlns:xlink="http://www.w3.org/1999/xlink">
<defs>
<symbol id="icon-client-1" viewBox="0 0 32 32">
<path d="M5.44 0l4.677 4.428h13.046v12.351l4.677 4.428v-21.206h-22.4z"></path>
<path d="M1.6 4.241v20.6h21.76v-8.188l-13.105-12.407-8.655-0.005zM19.215 21.828h-14.172v-13.855h1.002v12.917h13.17v0.938zM7.866 28.662l0.524-1.078h0.438l-0.764 1.437v0.838h-0.397v-0.838l-0.764-1.437h0.439l0.524 1.078zM10.113 29.329h-0.881l-0.184 0.53h-0.411l0.859-2.275h0.355l0.861 2.275h-0.413l-0.186-0.53zM9.343 29.010h0.659l-0.33-0.944-0.33 0.944zM11.671 29.244c0-0.105 0.029-0.202 0.086-0.289 0.058-0.089 0.17-0.193 0.339-0.314-0.069-0.083-0.131-0.176-0.182-0.276l-0.004-0.008c-0.031-0.066-0.050-0.144-0.052-0.226v-0c0-0.179 0.054-0.319 0.163-0.422s0.254-0.156 0.437-0.156c0.166 0 0.301 0.049 0.406 0.147 0.106 0.097 0.16 0.218 0.16 0.361 0 0.001 0 0.002 0 0.003 0 0.096-0.027 0.186-0.074 0.262l0.001-0.002c-0.063 0.095-0.142 0.174-0.233 0.236l-0.003 0.002-0.155 0.113 0.44 0.518c0.063-0.125 0.095-0.264 0.095-0.417h0.33c0 0.28-0.065 0.509-0.196 0.689l0.334 0.396h-0.44l-0.128-0.152c-0.154 0.115-0.348 0.183-0.558 0.183-0.008 0-0.017-0-0.025-0l0.001 0c-0.225 0-0.405-0.060-0.54-0.179-0.124-0.11-0.202-0.27-0.202-0.447 0-0.007 0-0.014 0-0.021l-0 0.001zM12.424 29.587c0.128 0 0.248-0.043 0.359-0.128l-0.497-0.586-0.049 0.035c-0.125 0.095-0.188 0.203-0.188 0.325 0 0.105 0.034 0.191 0.102 0.256 0.066 0.061 0.156 0.099 0.254 0.099 0.006 0 0.013-0 0.019-0l-0.001 0zM12.214 28.121c0 0.088 0.054 0.197 0.161 0.33l0.173-0.118 0.049-0.039c0.059-0.052 0.097-0.128 0.097-0.212 0-0.003-0-0.006-0-0.009v0c0-0.001 0-0.001 0-0.002 0-0.059-0.026-0.112-0.067-0.149l-0-0c-0.042-0.040-0.099-0.064-0.162-0.064-0.003 0-0.006 0-0.009 0h0c-0.003-0-0.006-0-0.010-0-0.066 0-0.126 0.029-0.167 0.075l-0 0c-0.041 0.048-0.066 0.111-0.066 0.179 0 0.003 0 0.007 0 0.010v-0zM16.348 29.118c-0.023 0.243-0.113 0.432-0.269 0.568s-0.364 0.204-0.623 0.204c-0.181 0-0.341-0.043-0.48-0.128-0.139-0.089-0.248-0.214-0.317-0.362l-0.002-0.005c-0.074-0.16-0.117-0.347-0.117-0.544 0-0.003 0-0.005 0-0.008v0-0.212c0-0.214 0.038-0.403 0.114-0.567 0.077-0.164 0.186-0.29 0.326-0.378 0.143-0.089 0.307-0.133 0.494-0.133 0.251 0 0.453 0.068 0.606 0.205s0.243 0.329 0.268 0.578h-0.394c-0.019-0.163-0.067-0.281-0.144-0.353-0.076-0.073-0.188-0.109-0.336-0.109-0.172 0-0.304 0.063-0.397 0.189-0.092 0.125-0.138 0.309-0.141 0.552v0.202c0 0.246 0.044 0.433 0.132 0.563s0.218 0.194 0.387 0.194c0.155 0 0.272-0.035 0.35-0.105s0.128-0.186 0.148-0.348h0.394zM18.518 28.78c0 0.223-0.038 0.419-0.115 0.588-0.077 0.168-0.188 0.297-0.332 0.388-0.143 0.090-0.307 0.134-0.494 0.134-0.184 0-0.349-0.045-0.493-0.134-0.146-0.094-0.261-0.225-0.332-0.38l-0.002-0.006c-0.075-0.163-0.119-0.354-0.119-0.555 0-0.008 0-0.015 0-0.023v0.001-0.128c0-0.222 0.038-0.418 0.117-0.588s0.19-0.3 0.333-0.389c0.144-0.091 0.308-0.136 0.493-0.136s0.35 0.045 0.493 0.134c0.143 0.089 0.255 0.217 0.333 0.384s0.118 0.362 0.118 0.584v0.126zM18.122 28.662c0-0.252-0.048-0.445-0.143-0.58-0.085-0.123-0.225-0.202-0.384-0.202-0.007 0-0.015 0-0.022 0.001l0.001-0c-0.005-0-0.011-0-0.016-0-0.159 0-0.299 0.079-0.384 0.2l-0.001 0.002c-0.096 0.133-0.145 0.323-0.147 0.567v0.131c0 0.25 0.049 0.444 0.146 0.58s0.233 0.205 0.406 0.205c0.175 0 0.31-0.067 0.403-0.2 0.095-0.133 0.142-0.328 0.142-0.584v-0.118z"></path>
</symbol>
<symbol id="icon-client-2" viewBox="0 0 32 32">
<path d="M14.14 1.806h0.084c0.156 0 0.324 0.015 0.49 0.030 0.734 0.052 1.463 0.162 2.18 0.329v-1.762c-0.652-0.172-1.42-0.299-2.207-0.357l-0.042-0.002c-0.254-0.020-0.571-0.035-0.889-0.043l-0.021-0h-0.263c-1.523 0.006-3.040 0.201-4.514 0.582-1.68 0.418-3.293 1.075-4.79 1.948v17.475c1.312-0.729 2.832-1.339 4.431-1.75l0.135-0.029c1.123-0.3 2.433-0.51 3.78-0.586l0.052-0.002h0.052c0.217-0.011 0.433-0.017 0.655-0.018v-1.791c-1.78 0.024-3.493 0.264-5.129 0.695l0.147-0.033c-0.603 0.157-1.185 0.326-1.731 0.513l-0.623 0.212v-13.626l0.266-0.128c1.89-0.918 4.096-1.513 6.425-1.649l0.047-0.002c0.008-0.001 0.018-0.001 0.028-0.001s0.019 0 0.029 0.001l-0.001-0c0.248-0.012 0.497-0.018 0.742-0.018h0.28c0.129 0.003 0.258 0.006 0.388 0.014z"></path>
<path d="M18.529 3.65c-0.006 0-0.013 0-0.019 0-0.913 0-1.809-0.077-2.68-0.224l0.094 0.013c-0.277-0.047-0.55-0.103-0.814-0.164v17.274c1.12 0.278 2.271 0.413 3.425 0.404 1.607-0.007 3.162-0.218 4.644-0.609l-0.128 0.029c1.817-0.461 3.412-1.129 4.877-1.995l-0.085 0.047v-17.163c-1.311 0.728-2.83 1.338-4.429 1.751l-0.136 0.030c-1.551 0.399-3.146 0.603-4.746 0.609zM25.437 3.95l0.623-0.209v13.63l-0.266 0.129c-0.903 0.442-1.962 0.834-3.065 1.117l-0.119 0.026c-1.331 0.345-2.699 0.522-4.074 0.527-0.411 0-0.818-0.017-1.214-0.051l-0.426-0.038v-14.017l0.497 0.033c0.361 0.023 0.735 0.034 1.141 0.034 1.841-0.007 3.622-0.248 5.32-0.696l-0.147 0.033c0.581-0.154 1.158-0.326 1.731-0.518zM5.377 25.977c-0.167-0.173-0.401-0.281-0.661-0.281-0.011 0-0.023 0-0.034 0.001l0.002-0c-0.004-0-0.009-0-0.013-0-0.139 0-0.272 0.028-0.393 0.078l0.007-0.003c-0.237 0.095-0.42 0.28-0.51 0.512l-0.002 0.006c-0.049 0.123-0.073 0.254-0.071 0.386v2.335c-0.006 0.165 0.026 0.328 0.092 0.479 0.055 0.12 0.135 0.226 0.234 0.313 0.093 0.079 0.202 0.135 0.32 0.166 0.114 0.031 0.231 0.048 0.349 0.048 0.13 0.001 0.258-0.026 0.377-0.081 0.35-0.156 0.59-0.501 0.591-0.901v-0.261h-0.611v0.208c0 0.004 0 0.009 0 0.014 0 0.070-0.013 0.136-0.037 0.198l0.001-0.004c-0.021 0.052-0.051 0.095-0.088 0.132l-0 0c-0.070 0.054-0.159 0.088-0.255 0.089h-0c-0.011 0.001-0.023 0.002-0.035 0.002-0.103 0-0.194-0.050-0.25-0.127l-0.001-0.001c-0.051-0.082-0.082-0.182-0.082-0.289 0-0.008 0-0.016 0.001-0.024l-0 0.001v-2.177c-0.004-0.121 0.022-0.24 0.075-0.349 0.056-0.087 0.153-0.143 0.262-0.143 0.013 0 0.025 0.001 0.038 0.002l-0.002-0c0.003-0 0.008-0 0.012-0 0.107 0 0.201 0.052 0.26 0.131l0.001 0.001c0.063 0.082 0.101 0.187 0.101 0.3 0 0.005-0 0.009-0 0.014v-0.001 0.202h0.604v-0.238c0-0.003 0-0.006 0-0.010 0-0.143-0.027-0.28-0.077-0.405l0.003 0.007c-0.048-0.128-0.117-0.237-0.205-0.33l0 0zM9.002 25.95c-0.186-0.158-0.429-0.255-0.694-0.257h-0c-0.124 0-0.248 0.023-0.364 0.066-0.252 0.090-0.451 0.276-0.557 0.511l-0.002 0.006c-0.062 0.142-0.092 0.297-0.089 0.452v2.24c-0.004 0.157 0.026 0.314 0.089 0.458 0.055 0.121 0.136 0.228 0.237 0.313 0.094 0.086 0.203 0.154 0.322 0.197 0.108 0.041 0.233 0.065 0.364 0.065 0.267 0 0.51-0.099 0.696-0.263l-0.001 0.001c0.097-0.087 0.176-0.194 0.23-0.313 0.063-0.144 0.093-0.301 0.089-0.458v-2.239c0-0.006 0-0.014 0-0.021 0-0.156-0.033-0.304-0.092-0.438l0.003 0.007c-0.057-0.128-0.135-0.236-0.23-0.326l-0-0zM8.718 28.969c0.001 0.010 0.002 0.023 0.002 0.035 0 0.114-0.047 0.216-0.123 0.289l-0 0c-0.077 0.065-0.178 0.105-0.287 0.105s-0.21-0.040-0.288-0.105l0.001 0.001c-0.076-0.073-0.123-0.175-0.123-0.289 0-0.012 0.001-0.025 0.002-0.037l-0 0.002v-2.239c-0.001-0.010-0.001-0.022-0.001-0.034 0-0.113 0.047-0.216 0.123-0.289l0-0c0.077-0.065 0.178-0.105 0.287-0.105s0.21 0.040 0.288 0.105l-0.001-0.001c0.076 0.073 0.123 0.175 0.123 0.288 0 0.012-0.001 0.025-0.002 0.037l0-0.002v2.24zM13.764 29.969v-4.24h-0.586l-0.771 2.244h-0.010l-0.778-2.244h-0.58v4.24h0.606v-2.579h0.011l0.593 1.823h0.302l0.598-1.823h0.010v2.578h0.606zM17.205 26.027c-0.093-0.105-0.211-0.185-0.342-0.232-0.124-0.042-0.267-0.066-0.416-0.066-0.008 0-0.016 0-0.024 0l0.001-0h-0.9v4.24h0.604v-1.656h0.311c0.189 0.009 0.376-0.031 0.545-0.116 0.139-0.078 0.251-0.188 0.329-0.32l0.002-0.004c0.070-0.113 0.117-0.238 0.138-0.369 0.021-0.133 0.033-0.287 0.033-0.444 0-0.013-0-0.027-0-0.040l0 0.002c0.006-0.204-0.014-0.407-0.059-0.606-0.043-0.153-0.12-0.284-0.223-0.39l0 0zM16.894 27.319c-0.003 0.081-0.023 0.156-0.057 0.223l0.001-0.003c-0.035 0.065-0.089 0.117-0.154 0.148l-0.002 0.001c-0.075 0.034-0.162 0.054-0.254 0.054-0.011 0-0.022-0-0.033-0.001l0.002 0h-0.276v-1.441h0.311c0.009-0 0.019-0.001 0.029-0.001 0.088 0 0.172 0.020 0.247 0.055l-0.004-0.002c0.062 0.036 0.111 0.090 0.141 0.154l0.001 0.002c0.033 0.074 0.051 0.155 0.053 0.236v0.282c0 0.098 0.006 0.2 0 0.291h-0.006zM20.066 25.729h-0.495l-0.934 4.24h0.604l0.177-0.911h0.823l0.178 0.911h0.604l-0.957-4.24zM19.509 28.481l0.297-1.537h0.011l0.295 1.537h-0.604zM23.969 28.283h-0.011l-0.913-2.554h-0.58v4.24h0.604v-2.55h0.012l0.923 2.549h0.568v-4.239h-0.604v2.554zM27.66 25.729l-0.486 1.686h-0.012l-0.486-1.686h-0.639l0.83 2.448v1.791h0.604v-1.791l0.83-2.447h-0.64zM3.692 31.166h0.291v0.817h0.198v-0.817h0.289v-0.167h-0.778v0.167zM6.14 30.999l-0.382 0.984h0.21l0.081-0.224h0.392l0.084 0.224h0.215l-0.391-0.985h-0.21zM6.109 31.593l0.134-0.365 0.134 0.365h-0.268zM8.559 31.62h0.228v0.127c-0.063 0.051-0.145 0.082-0.234 0.083h-0c-0.004 0-0.009 0-0.014 0-0.079 0-0.149-0.037-0.195-0.094l-0-0c-0.046-0.065-0.073-0.147-0.073-0.234 0-0.008 0-0.016 0.001-0.023l-0 0.001c0-0.219 0.095-0.329 0.283-0.329 0.006-0.001 0.014-0.001 0.021-0.001 0.097 0 0.178 0.067 0.201 0.157l0 0.001 0.194-0.038c-0.042-0.192-0.18-0.289-0.417-0.289-0.004-0-0.008-0-0.013-0-0.127 0-0.244 0.048-0.331 0.127l0-0c-0.088 0.087-0.143 0.208-0.143 0.342 0 0.013 0.001 0.026 0.002 0.038l-0-0.002c-0 0.007-0 0.015-0 0.023 0 0.132 0.048 0.254 0.127 0.347l-0.001-0.001c0.087 0.090 0.209 0.146 0.343 0.146 0.011 0 0.021-0 0.032-0.001l-0.001 0c0.005 0 0.010 0 0.016 0 0.155 0 0.296-0.060 0.402-0.157l-0 0v-0.388h-0.426v0.166zM11.030 30.999h-0.199v0.984h0.689v-0.167h-0.49v-0.817zM13.119 30.999h-0.199v0.984h0.199v-0.985zM15.161 31.655l-0.404-0.657h-0.193v0.984h0.185v-0.643l0.396 0.643h0.198v-0.985h-0.182v0.658zM17.007 31.55h0.49v-0.167h-0.49v-0.216h0.527v-0.167h-0.727v0.984h0.747v-0.167h-0.548v-0.266zM21.484 31.386h-0.388v-0.388h-0.198v0.984h0.198v-0.431h0.388v0.431h0.198v-0.985h-0.198v0.388zM23.342 31.55h0.492v-0.167h-0.492v-0.216h0.529v-0.167h-0.726v0.984h0.746v-0.167h-0.548v-0.266zM25.86 31.55c0.172-0.026 0.258-0.117 0.258-0.274 0.001-0.008 0.002-0.018 0.002-0.028 0-0.079-0.038-0.148-0.098-0.191l-0.001-0c-0.073-0.037-0.159-0.059-0.25-0.059-0.013 0-0.027 0-0.040 0.001l0.002-0h-0.417v0.985h0.198v-0.412h0.039c0.005-0 0.010-0 0.016-0 0.039 0 0.076 0.008 0.109 0.023l-0.002-0.001c0.029 0.018 0.053 0.043 0.070 0.072l0.215 0.313h0.236l-0.12-0.193c-0.054-0.096-0.128-0.175-0.215-0.235l-0.002-0.002zM25.661 31.414h-0.146v-0.247h0.156c0.012-0.001 0.027-0.002 0.042-0.002 0.057 0 0.111 0.009 0.163 0.026l-0.004-0.001c0.027 0.024 0.044 0.058 0.044 0.096 0 0.022-0.006 0.043-0.016 0.062l0-0.001c-0.009 0.017-0.022 0.032-0.037 0.043l-0 0c-0.049 0.016-0.106 0.025-0.164 0.025-0.013 0-0.026-0-0.039-0.001l0.002 0zM27.76 31.55h0.49v-0.167h-0.49v-0.216h0.529v-0.167h-0.728v0.984h0.747v-0.167h-0.548v-0.266z"></path>
</symbol>
<symbol id="icon-client-3" viewBox="0 0 32 32">
<path d="M5.466 31.103c0.023 0 0.044 0.010 0.060 0.025v0l0.153 0.161c-0.119 0.13-0.266 0.234-0.431 0.305-0.194 0.077-0.401 0.114-0.61 0.109-0.009 0-0.020 0-0.031 0-0.196 0-0.382-0.038-0.554-0.106l0.010 0.004c-0.332-0.134-0.588-0.396-0.709-0.724l-0.003-0.009c-0.061-0.164-0.097-0.353-0.097-0.55 0-0.007 0-0.015 0-0.022v0.001c-0-0.007-0-0.015-0-0.023 0-0.198 0.038-0.387 0.108-0.56l-0.004 0.010c0.067-0.166 0.168-0.317 0.298-0.445 0.13-0.126 0.287-0.225 0.459-0.29 0.188-0.069 0.389-0.104 0.591-0.102 0.010-0 0.023-0 0.035-0 0.185 0 0.362 0.034 0.525 0.097l-0.010-0.003c0.151 0.063 0.29 0.15 0.412 0.258l-0.129 0.171c-0.009 0.012-0.020 0.023-0.032 0.031l-0 0c-0.013 0.008-0.028 0.013-0.044 0.013-0.003 0-0.005-0-0.007-0l0 0c-0.021-0.001-0.040-0.008-0.056-0.019l0 0-0.068-0.045-0.096-0.058c-0.087-0.047-0.189-0.082-0.296-0.102l-0.006-0.001c-0.063-0.011-0.135-0.018-0.208-0.018-0.007 0-0.014 0-0.021 0h0.001c-0.004-0-0.009-0-0.014-0-0.148 0-0.289 0.028-0.418 0.079l0.008-0.003c-0.13 0.050-0.241 0.123-0.333 0.215l0-0c-0.095 0.099-0.169 0.216-0.216 0.342-0.054 0.146-0.081 0.299-0.079 0.452-0.002 0.156 0.025 0.313 0.079 0.46 0.046 0.127 0.119 0.242 0.212 0.342 0.088 0.092 0.196 0.164 0.318 0.211 0.125 0.049 0.259 0.074 0.394 0.073 0.078 0.001 0.156-0.004 0.234-0.015 0.127-0.015 0.247-0.057 0.354-0.122 0.054-0.034 0.104-0.071 0.151-0.113 0.019-0.017 0.044-0.029 0.072-0.030h0zM9.888 30.296c0.002 0.194-0.033 0.387-0.103 0.568-0.067 0.172-0.165 0.319-0.288 0.44l-0 0c-0.126 0.123-0.276 0.221-0.444 0.286l-0.009 0.003c-0.173 0.065-0.373 0.102-0.582 0.102s-0.409-0.037-0.594-0.106l0.012 0.004c-0.175-0.069-0.325-0.167-0.45-0.29l0 0c-0.123-0.123-0.222-0.271-0.288-0.436l-0.003-0.009c-0.065-0.169-0.103-0.364-0.103-0.568s0.038-0.399 0.107-0.579l-0.004 0.011c0.065-0.166 0.164-0.318 0.29-0.447 0.126-0.119 0.276-0.214 0.441-0.276l0.009-0.003c0.173-0.066 0.373-0.104 0.582-0.104s0.409 0.038 0.594 0.108l-0.012-0.004c0.17 0.066 0.324 0.164 0.452 0.29 0.127 0.127 0.224 0.275 0.289 0.439 0.071 0.182 0.106 0.376 0.104 0.571zM9.486 30.296c0-0.007 0-0.016 0-0.024 0-0.155-0.027-0.303-0.076-0.441l0.003 0.009c-0.087-0.256-0.278-0.457-0.522-0.554l-0.006-0.002c-0.126-0.047-0.271-0.075-0.423-0.075s-0.297 0.027-0.432 0.078l0.009-0.003c-0.251 0.099-0.443 0.299-0.528 0.55l-0.002 0.006c-0.097 0.298-0.097 0.615 0 0.912 0.087 0.256 0.279 0.457 0.524 0.552l0.006 0.002c0.273 0.097 0.573 0.097 0.846 0 0.124-0.048 0.234-0.121 0.324-0.214 0.092-0.1 0.162-0.216 0.205-0.341 0.052-0.147 0.076-0.301 0.073-0.456zM12.904 30.774l0.041 0.103c0.015-0.037 0.028-0.069 0.044-0.103 0.017-0.040 0.034-0.073 0.052-0.104l-0.002 0.005 0.978-1.695c0.019-0.029 0.037-0.047 0.056-0.052 0.021-0.006 0.044-0.010 0.069-0.010 0.004 0 0.008 0 0.012 0l-0.001-0h0.289v2.756h-0.342v-2.112c-0.001-0.014-0.001-0.031-0.001-0.047s0-0.033 0.001-0.050l-0 0.002-0.984 1.718c-0.013 0.026-0.033 0.048-0.057 0.062l-0.001 0c-0.024 0.015-0.052 0.023-0.083 0.023-0 0-0.001 0-0.001 0h-0.055c-0.030 0-0.060-0.007-0.084-0.022s-0.045-0.037-0.057-0.062l-0-0.001-1.013-1.729v2.212h-0.331v-2.749h0.289c0.004-0 0.009-0 0.014-0 0.024 0 0.046 0.003 0.068 0.010l-0.002-0c0.024 0.011 0.042 0.029 0.053 0.052l0 0.001 0.999 1.697c0.018 0.028 0.035 0.060 0.048 0.093l0.001 0.004zM16.586 30.638v1.031h-0.383v-2.75h0.854c0.161-0.003 0.322 0.017 0.476 0.060 0.124 0.034 0.239 0.092 0.337 0.172 0.085 0.074 0.15 0.167 0.191 0.27 0.045 0.112 0.067 0.231 0.066 0.352 0.002 0.121-0.022 0.24-0.071 0.351-0.049 0.109-0.119 0.201-0.205 0.274l-0.001 0.001c-0.095 0.080-0.209 0.143-0.333 0.181l-0.007 0.002c-0.149 0.045-0.305 0.067-0.461 0.064l-0.463-0.007zM16.586 30.342h0.464c0.1 0.002 0.201-0.013 0.296-0.042 0.083-0.027 0.154-0.068 0.215-0.12l-0.001 0.001c0.056-0.049 0.1-0.11 0.129-0.178l0.001-0.003c0.029-0.066 0.046-0.144 0.046-0.225 0-0.002 0-0.005-0-0.007v0c0.001-0.009 0.001-0.019 0.001-0.029 0-0.071-0.015-0.138-0.041-0.199l0.001 0.003c-0.032-0.074-0.077-0.137-0.133-0.187l-0-0c-0.126-0.094-0.285-0.15-0.457-0.15-0.020 0-0.040 0.001-0.060 0.002l0.003-0h-0.464v1.135zM21.731 31.673h-0.302c-0.002 0-0.004 0-0.006 0-0.029 0-0.057-0.010-0.079-0.026l0 0c-0.021-0.017-0.038-0.038-0.049-0.063l-0-0.001-0.26-0.665h-1.307l-0.27 0.665c-0.010 0.025-0.027 0.046-0.047 0.062l-0 0c-0.022 0.017-0.050 0.027-0.081 0.027-0.002 0-0.004-0-0.006-0h-0.302l1.148-2.756h0.398l1.164 2.756zM19.836 30.651h1.079l-0.455-1.122c-0.030-0.070-0.060-0.157-0.083-0.245l-0.003-0.014-0.044 0.144c-0.015 0.049-0.029 0.088-0.045 0.126l0.003-0.009-0.452 1.12zM23.385 28.931c0.023 0.012 0.043 0.028 0.058 0.049l1.674 2.077v-2.14h0.342v2.756h-0.191c-0.001 0-0.003 0-0.005 0-0.027 0-0.052-0.006-0.074-0.017l0.001 0c-0.024-0.013-0.044-0.030-0.061-0.050l-0-0-1.674-2.076c0.002 0.032 0.002 0.064 0 0.095v2.049h-0.342v-2.756h0.203c0.024-0.001 0.047 0.004 0.068 0.013zM28.281 30.578v1.094h-0.383v-1.094l-1.058-1.66h0.342c0.030-0.002 0.060 0.007 0.083 0.024 0.021 0.017 0.038 0.038 0.052 0.061l0.001 0.001 0.662 1.070c0.026 0.046 0.049 0.088 0.068 0.128s0.034 0.078 0.048 0.117l0.050-0.119c0.019-0.043 0.040-0.085 0.066-0.126l0.653-1.078c0.014-0.022 0.031-0.041 0.050-0.058l0-0c0.021-0.017 0.048-0.028 0.077-0.028 0.002 0 0.004 0 0.005 0h0.347l-1.060 1.667zM12.715 24.293c0.167 0.020 0.335 0.037 0.506 0.051 2.582-1.101 4.767-2.902 6.281-5.18s2.29-4.93 2.231-7.625l-2.846-2.712c0.189 0.894 0.297 1.921 0.297 2.974 0 2.015-0.396 3.937-1.115 5.694l0.036-0.1c-1.090 2.731-2.957 5.12-5.39 6.899z"></path>
<path d="M11.699 24.167l0.077 0.015c2.6-1.773 4.583-4.247 5.692-7.104 0.627-1.564 0.991-3.378 0.991-5.276 0-1.296-0.17-2.553-0.488-3.748l0.023 0.101-4.054-3.862c1.269 2.397 2.015 5.239 2.015 8.255 0 0.701-0.040 1.393-0.119 2.074l0.008-0.083c-0.397 3.519-1.834 6.857-4.144 9.628zM25.448 14.724c-0.688 2.962-2.361 5.632-4.77 7.616-0.665 0.553-1.406 1.066-2.191 1.51l-0.075 0.039c2.039-0.578 3.804-1.556 5.285-2.851l-0.016 0.013c1.465-1.281 2.625-2.875 3.381-4.679l0.031-0.084-1.645-1.565z"></path>
<path d="M24.804 14.288l-2.341-2.23c-0.053 2.681-0.865 5.162-2.23 7.249l0.032-0.053c-1.394 2.169-3.373 3.943-5.729 5.137h0.012c0.525 0 1.049-0.030 1.572-0.089 2.251-0.884 4.15-2.237 5.649-3.95l0.014-0.017c1.454-1.66 2.512-3.704 3.005-5.958l0.016-0.089zM12.038 2.664l-2.793-2.664c-2.497 0.919-4.644 2.535-6.16 4.636s-2.333 4.589-2.34 7.139c0.010 2.818 1.005 5.552 2.829 7.77s4.372 3.793 7.242 4.476c2.562-2.973 4.061-6.647 4.281-10.488s-0.851-7.648-3.059-10.87zM31.256 13.879c-0.010-3.344-1.409-6.547-3.89-8.911s-5.843-3.696-9.352-3.706c-1.622-0.002-3.23 0.284-4.741 0.841l17.099 16.29c0.559-1.335 0.884-2.886 0.884-4.513 0-0 0-0.001 0-0.001v0z"></path>
</symbol>
<symbol id="icon-client-4" viewBox="0 0 32 32">
<path d="M4.961 12.532h-0.001c-0.905 0-1.638 0.715-1.638 1.597v0.001c0 0.882 0.734 1.597 1.638 1.597h0.001c0.905 0 1.638-0.715 1.638-1.597v-0.001c0-0.882-0.734-1.596-1.638-1.596zM17.055 12.022c-0.003-1.225-0.503-2.399-1.392-3.265-0.888-0.866-2.092-1.354-3.349-1.357-1.257 0.002-2.462 0.49-3.352 1.356s-1.39 2.041-1.392 3.266v6.754s9.484-1.029 9.485-6.753v-0.001zM0 20.993c0.004 0.892 0.375 1.696 0.968 2.271l0.001 0.001c0.602 0.584 1.424 0.944 2.331 0.945h0c0.906-0.001 1.728-0.361 2.331-0.946l-0.001 0.001c0.594-0.576 0.964-1.38 0.969-2.27v-4.701s-6.599 0.717-6.599 4.699zM3.3 21.835c-0 0-0.001 0-0.001 0-0.178 0-0.344-0.053-0.483-0.144l0.003 0.002c-0.14-0.092-0.25-0.22-0.316-0.372l-0.002-0.005c-0.042-0.095-0.066-0.206-0.066-0.322 0-0.058 0.006-0.115 0.018-0.17l-0.001 0.005c0.036-0.171 0.12-0.318 0.237-0.431l0-0c0.118-0.115 0.269-0.196 0.437-0.23l0.006-0.001c0.168-0.032 0.341-0.016 0.499 0.048s0.293 0.172 0.388 0.31c0.091 0.131 0.146 0.294 0.146 0.469 0 0.116-0.024 0.227-0.067 0.327l0.002-0.005c-0.043 0.102-0.107 0.196-0.187 0.274s-0.176 0.141-0.281 0.183c-0.098 0.041-0.212 0.064-0.331 0.064-0 0-0 0-0 0h0v-0.003zM10.036 21.312h-0.675v0.697h-0.352v-1.706h1.111v0.285h-0.759v0.44h0.675v0.284zM11.726 21.195c0 0.168-0.030 0.315-0.089 0.442s-0.144 0.224-0.256 0.293c-0.104 0.065-0.231 0.103-0.367 0.103-0.005 0-0.009-0-0.014-0h0.001c-0.141 0-0.268-0.034-0.378-0.102-0.112-0.070-0.201-0.169-0.256-0.286l-0.002-0.004c-0.058-0.123-0.092-0.268-0.092-0.421 0-0.005 0-0.011 0-0.016v0.001-0.085c0-0.168 0.030-0.316 0.090-0.443s0.146-0.226 0.256-0.294c0.111-0.069 0.238-0.103 0.38-0.103s0.268 0.034 0.378 0.103c0.111 0.068 0.196 0.166 0.256 0.294s0.092 0.275 0.092 0.442v0.076zM11.37 21.118c0-0.179-0.032-0.315-0.096-0.408-0.057-0.085-0.152-0.14-0.261-0.14-0.005 0-0.010 0-0.014 0l0.001-0c-0.004-0-0.008-0-0.013-0-0.108 0-0.203 0.055-0.259 0.138l-0.001 0.001c-0.064 0.091-0.097 0.226-0.098 0.403v0.083c0 0.174 0.032 0.31 0.096 0.406s0.156 0.144 0.277 0.144c0.004 0 0.009 0 0.014 0 0.107 0 0.202-0.054 0.257-0.137l0.001-0.001c0.063-0.093 0.095-0.228 0.096-0.406v-0.083zM12.866 21.562c0-0.003 0-0.006 0-0.010 0-0.058-0.028-0.109-0.070-0.142l-0-0c-0.047-0.036-0.131-0.074-0.253-0.113-0.113-0.035-0.208-0.075-0.3-0.122l0.010 0.005c-0.194-0.105-0.291-0.246-0.291-0.423 0-0.092 0.026-0.174 0.078-0.246s0.127-0.129 0.224-0.17c0.098-0.040 0.207-0.061 0.328-0.061s0.23 0.022 0.326 0.067c0.096 0.044 0.169 0.106 0.222 0.186s0.080 0.172 0.080 0.274h-0.352c0-0.078-0.024-0.139-0.074-0.182-0.049-0.044-0.118-0.066-0.208-0.066-0.086 0-0.153 0.018-0.2 0.055-0.044 0.031-0.072 0.082-0.072 0.139 0 0.001 0 0.003 0 0.004v-0c0 0.055 0.028 0.102 0.083 0.139 0.056 0.038 0.139 0.073 0.248 0.106 0.2 0.060 0.346 0.135 0.437 0.224s0.137 0.2 0.137 0.332c0 0.148-0.056 0.264-0.168 0.348s-0.262 0.126-0.451 0.126c-0.131 0-0.251-0.024-0.358-0.072-0.101-0.043-0.185-0.111-0.246-0.196l-0.001-0.002c-0.053-0.079-0.085-0.176-0.085-0.281 0-0.003 0-0.007 0-0.010v0.001h0.352c0 0.188 0.113 0.282 0.338 0.282 0.084 0 0.149-0.017 0.196-0.050 0.043-0.031 0.070-0.080 0.070-0.136 0-0.002-0-0.005-0-0.007v0zM14.742 20.588h-0.522v1.421h-0.352v-1.421h-0.516v-0.285h1.39v0.285zM15.97 21.27h-0.675v0.457h0.792v0.282h-1.144v-1.706h1.142v0.285h-0.79v0.406h0.675v0.276zM16.925 21.385h-0.28v0.624h-0.352v-1.706h0.634c0.201 0 0.357 0.045 0.466 0.135s0.164 0.217 0.164 0.381c0 0.116-0.026 0.214-0.076 0.292-0.057 0.082-0.134 0.145-0.225 0.184l-0.003 0.001 0.369 0.697v0.016h-0.378l-0.32-0.624zM16.645 21.1h0.284c0.088 0 0.156-0.022 0.205-0.067 0.045-0.044 0.073-0.106 0.073-0.174 0-0.004-0-0.009-0-0.013l0 0.001c0-0.080-0.023-0.144-0.069-0.19s-0.115-0.069-0.21-0.069h-0.283v0.512zM18.776 21.408v0.601h-0.352v-1.706h0.666c0.128 0 0.24 0.023 0.338 0.070s0.172 0.114 0.225 0.2c0.052 0.086 0.078 0.184 0.078 0.294 0 0.167-0.057 0.299-0.172 0.396s-0.272 0.144-0.475 0.144h-0.308zM18.776 21.124h0.314c0.093 0 0.164-0.022 0.212-0.066s0.074-0.106 0.074-0.187c0-0.004 0-0.008 0-0.012 0-0.074-0.028-0.141-0.074-0.191l0 0c-0.049-0.052-0.117-0.078-0.204-0.080h-0.322v0.536zM21 21.27h-0.675v0.457h0.792v0.282h-1.144v-1.706h1.142v0.285h-0.79v0.406h0.675v0.276zM22.631 20.588h-0.522v1.421h-0.352v-1.421h-0.515v-0.285h1.39v0.285zM23.859 21.27h-0.675v0.457h0.792v0.282h-1.144v-1.706h1.142v0.285h-0.79v0.406h0.675v0.276zM24.814 21.385h-0.28v0.624h-0.352v-1.706h0.634c0.202 0 0.357 0.045 0.466 0.135s0.164 0.217 0.164 0.381c0 0.116-0.025 0.214-0.076 0.292-0.057 0.082-0.134 0.145-0.225 0.184l-0.003 0.001 0.369 0.697v0.016h-0.377l-0.32-0.624zM24.534 21.1h0.284c0.088 0 0.156-0.022 0.205-0.067 0.045-0.044 0.073-0.105 0.073-0.173 0-0.005-0-0.009-0-0.014l0 0.001c0-0.080-0.023-0.144-0.069-0.19s-0.115-0.069-0.21-0.069h-0.282v0.512zM26.6 21.562c0-0.003 0-0.006 0-0.010 0-0.058-0.028-0.109-0.070-0.142l-0-0c-0.047-0.036-0.131-0.074-0.253-0.113-0.113-0.035-0.208-0.075-0.3-0.122l0.010 0.005c-0.194-0.105-0.291-0.246-0.291-0.423 0-0.092 0.026-0.174 0.078-0.246s0.127-0.129 0.224-0.17c0.097-0.040 0.207-0.061 0.328-0.061s0.23 0.022 0.326 0.067c0.095 0.044 0.169 0.106 0.222 0.186s0.080 0.172 0.080 0.274h-0.352c0-0.078-0.024-0.139-0.074-0.182-0.050-0.044-0.118-0.066-0.208-0.066-0.086 0-0.153 0.018-0.2 0.055-0.044 0.031-0.072 0.082-0.072 0.139 0 0.002 0 0.003 0 0.005v-0c0 0.055 0.028 0.102 0.083 0.139 0.056 0.038 0.139 0.073 0.247 0.106 0.2 0.060 0.346 0.135 0.437 0.224s0.137 0.2 0.137 0.332c0 0.148-0.056 0.264-0.168 0.348s-0.262 0.126-0.451 0.126c-0.131 0-0.251-0.024-0.358-0.072-0.101-0.043-0.185-0.111-0.246-0.196l-0.001-0.002c-0.053-0.079-0.084-0.176-0.084-0.281 0-0.003 0-0.007 0-0.010v0.001h0.352c0 0.188 0.113 0.282 0.338 0.282 0.084 0 0.149-0.017 0.196-0.050 0.043-0.031 0.070-0.080 0.070-0.136 0-0.002-0-0.005-0-0.007v0z"></path>
</symbol>
<symbol id="icon-client-5" viewBox="0 0 32 32">
<path d="M2.434 24.558c0.125 0.155 0.191 0.349 0.188 0.548 0.001 0.013 0.001 0.027 0.001 0.042 0 0.258-0.112 0.49-0.291 0.649l-0.001 0.001c-0.242 0.184-0.542 0.273-0.846 0.253h-1.486v-3.474h1.455c0.025-0.002 0.053-0.003 0.082-0.003 0.272 0 0.523 0.088 0.728 0.236l-0.004-0.002c0.174 0.147 0.283 0.364 0.283 0.608 0 0.015-0 0.029-0.001 0.044l0-0.002c0.009 0.191-0.052 0.38-0.169 0.532-0.113 0.138-0.269 0.233-0.443 0.271 0.197 0.036 0.375 0.141 0.502 0.297zM0.692 24.033h0.621c0.142 0.011 0.282-0.030 0.396-0.116 0.083-0.076 0.135-0.184 0.135-0.305 0-0.012-0.001-0.024-0.002-0.036l0 0.002c0.001-0.009 0.001-0.019 0.001-0.030 0-0.122-0.051-0.232-0.133-0.31l-0-0c-0.099-0.074-0.223-0.119-0.358-0.119-0.017 0-0.035 0.001-0.052 0.002l0.002-0h-0.611v0.911zM1.77 25.365c0.091-0.079 0.148-0.195 0.148-0.325 0-0.010-0-0.019-0.001-0.029l0 0.001c0-0.008 0.001-0.017 0.001-0.025 0-0.132-0.058-0.25-0.15-0.331l-0.001-0c-0.105-0.079-0.238-0.127-0.382-0.127-0.014 0-0.029 0-0.043 0.001l0.002-0h-0.651v0.955h0.661c0.149 0.009 0.296-0.034 0.418-0.12zM5.409 26.051l-0.81-1.358h-0.304v1.358h-0.696v-3.473h1.318c0.027-0.002 0.059-0.003 0.091-0.003 0.315 0 0.605 0.113 0.829 0.3l-0.002-0.002c0.196 0.2 0.316 0.474 0.316 0.776 0 0.249-0.082 0.479-0.221 0.664l0.002-0.003c-0.163 0.187-0.385 0.312-0.629 0.353l0.862 1.388h-0.757zM4.295 24.22h0.569c0.396 0 0.593-0.175 0.593-0.526 0.001-0.009 0.001-0.019 0.001-0.030 0-0.14-0.056-0.268-0.146-0.361l0 0c-0.106-0.089-0.244-0.143-0.395-0.143-0.019 0-0.037 0.001-0.056 0.002l0.002-0h-0.577l0.007 1.058zM9.215 25.352h-1.387l-0.245 0.7h-0.73l1.275-3.435h0.789l1.269 3.435h-0.73l-0.24-0.699zM9.029 24.826l-0.507-1.466-0.507 1.466h1.014zM13.98 26.050h-0.692l-1.55-2.362v2.363h-0.689v-3.474h0.689l1.55 2.376v-2.376h0.692v3.474zM17.925 25.219c-0.145 0.263-0.359 0.473-0.617 0.609l-0.008 0.004c-0.301 0.152-0.635 0.228-0.972 0.219h-1.231v-3.474h1.231c0.016-0 0.034-0.001 0.053-0.001 0.335 0 0.651 0.079 0.93 0.22l-0.012-0.005c0.265 0.133 0.483 0.345 0.626 0.606 0.136 0.265 0.216 0.579 0.216 0.911s-0.080 0.646-0.222 0.923l0.005-0.011zM17.134 25.136c0.19-0.221 0.306-0.512 0.306-0.829s-0.116-0.608-0.308-0.831l0.001 0.002c-0.21-0.185-0.487-0.298-0.791-0.298-0.026 0-0.052 0.001-0.078 0.003l0.004-0h-0.48v2.249h0.481c0.022 0.002 0.049 0.002 0.075 0.002 0.303 0 0.58-0.113 0.792-0.299l-0.001 0.001zM9.648 3.254s8.923 3.382 8.734 8.277v8.278s-8.917-3.384-8.73-8.278l-0.004-8.277zM26.331 17.871c1.597-1.117 3.527-1.869 5.616-2.093l0.054-0.005v-2.591c-2.386 0.941-4.331 2.57-5.641 4.642l-0.028 0.048z"></path>
<path d="M25.318 18.652c1.393-2.778 3.739-4.906 6.598-5.985l0.084-0.028v-7.467s-12.708 4.818-12.439 11.787v11.786s0.566-0.215 1.457-0.619c0-0.377 0-0.757 0.040-1.139 0.279-3.351 1.866-6.284 4.243-8.322l0.017-0.014z"></path>
<path d="M24.11 23.030c0.067-0.818 0.215-1.626 0.445-2.414-1.624 1.912-2.631 4.393-2.691 7.106l-0 0.013c1.035-0.498 1.835-0.928 2.618-1.387l-0.174 0.094c-0.152-0.724-0.239-1.555-0.239-2.407 0-0.354 0.015-0.705 0.044-1.051l-0.003 0.045zM24.615 23.073c-0.025 0.286-0.039 0.619-0.039 0.955 0 0.755 0.071 1.493 0.208 2.208l-0.012-0.073c3.472-2.086 7.373-5.309 7.223-9.204v-0.339c-2.586 0.299-4.865 1.425-6.61 3.102l0.004-0.004c-0.399 0.983-0.675 2.122-0.771 3.312l-0.003 0.041z"></path>
</symbol>
<symbol id="icon-client-6" viewBox="0 0 32 32">
<path d="M16.086 15.408c-0.13-0.186-0.207-0.417-0.207-0.665 0-0.026 0.001-0.052 0.003-0.078l-0 0.004v-1.072c0-0.329 0.068-0.579 0.204-0.75s0.37-0.256 0.701-0.255c0.311 0 0.532 0.073 0.663 0.218 0.142 0.186 0.212 0.412 0.196 0.641v0.252h-0.557v-0.255c0-0.010 0-0.021 0-0.033 0-0.076-0.006-0.151-0.018-0.225l0.001 0.008c-0.009-0.059-0.038-0.111-0.079-0.148l-0-0c-0.049-0.037-0.111-0.058-0.178-0.058-0.008 0-0.017 0-0.025 0.001l0.001-0c-0.007-0.001-0.015-0.001-0.023-0.001-0.071 0-0.137 0.023-0.19 0.063l0.001-0.001c-0.047 0.042-0.080 0.098-0.092 0.162l-0 0.002c-0.016 0.087-0.023 0.176-0.022 0.265v1.302c-0.001 0.015-0.002 0.032-0.002 0.050 0 0.115 0.027 0.223 0.075 0.32l-0.002-0.004c0.028 0.039 0.066 0.069 0.11 0.088l0.002 0.001c0.032 0.014 0.070 0.023 0.11 0.023 0.012 0 0.023-0.001 0.035-0.002l-0.001 0c0.007 0.001 0.015 0.001 0.023 0.001 0.066 0 0.127-0.023 0.175-0.060l-0.001 0c0.044-0.041 0.073-0.095 0.083-0.157l0-0.001c0.013-0.086 0.019-0.174 0.018-0.261v-0.264h0.557v0.241c0.001 0.020 0.002 0.043 0.002 0.066 0 0.228-0.073 0.44-0.197 0.612l0.002-0.003c-0.128 0.159-0.346 0.239-0.666 0.239s-0.562-0.085-0.7-0.262zM18.404 15.419c-0.141-0.167-0.211-0.41-0.211-0.732v-1.128c0-0.319 0.070-0.559 0.211-0.723s0.375-0.245 0.705-0.245c0.327 0 0.561 0.082 0.702 0.245s0.212 0.405 0.212 0.723v1.128c0 0.319-0.072 0.563-0.214 0.731s-0.376 0.252-0.7 0.252c-0.324 0-0.563-0.085-0.705-0.251zM19.368 15.148c0.050-0.104 0.073-0.219 0.067-0.334v-1.381c0.001-0.011 0.001-0.024 0.001-0.037 0-0.106-0.025-0.205-0.069-0.294l0.002 0.004c-0.029-0.040-0.067-0.070-0.112-0.089l-0.002-0.001c-0.032-0.014-0.070-0.022-0.109-0.022-0.013 0-0.026 0.001-0.039 0.003l0.001-0c-0.011-0.002-0.024-0.002-0.038-0.002-0.040 0-0.077 0.008-0.112 0.023l0.002-0.001c-0.047 0.020-0.085 0.050-0.113 0.089l-0.001 0.001c-0.051 0.102-0.074 0.214-0.067 0.327v1.387c-0.007 0.115 0.016 0.229 0.067 0.334 0.032 0.035 0.071 0.063 0.115 0.082l0.002 0.001c0.042 0.019 0.091 0.029 0.143 0.029s0.101-0.011 0.145-0.030l-0.002 0.001c0.046-0.020 0.085-0.048 0.117-0.082l0-0v-0.006zM20.692 12.624h0.599l0.451 2.082 0.461-2.081h0.583l0.059 3.004h-0.43l-0.046-2.088-0.445 2.088h-0.346l-0.461-2.096-0.043 2.096h-0.436l0.054-3.004zM23.517 12.624h0.933c0.538 0 0.806 0.284 0.806 0.853 0 0.545-0.283 0.817-0.849 0.816h-0.317v1.335h-0.576l0.004-3.004zM24.314 13.908c0.057 0.007 0.115 0.002 0.169-0.014 0.057-0.017 0.106-0.045 0.148-0.081l-0.001 0c0.066-0.101 0.095-0.22 0.083-0.339 0-0.010 0.001-0.023 0.001-0.035 0-0.084-0.010-0.166-0.029-0.245l0.001 0.007c-0.009-0.032-0.023-0.059-0.043-0.083l0 0c-0.020-0.024-0.044-0.045-0.072-0.060l-0.001-0.001c-0.067-0.031-0.145-0.049-0.227-0.049-0.010 0-0.021 0-0.031 0.001l0.001-0h-0.224v0.898h0.224zM26.088 12.624h0.619l0.635 3.004h-0.537l-0.125-0.693h-0.552l-0.129 0.693h-0.545l0.635-3.004zM26.616 14.587l-0.216-1.261-0.215 1.261h0.431zM27.854 12.624h0.403l0.772 1.714v-1.714h0.478v3.004h-0.384l-0.777-1.789v1.789h-0.494l0.001-3.004zM30.628 14.483l-0.642-1.855h0.54l0.392 1.191 0.367-1.191h0.529l-0.634 1.855v1.146h-0.553v-1.146zM16.976 16.942v0.157h-0.47v1.221h-0.197v-1.221h-0.472v-0.157h1.14zM18.45 18.319h-0.152c-0.001 0-0.003 0-0.004 0-0.015 0-0.028-0.005-0.039-0.013l0 0c-0.011-0.008-0.020-0.019-0.025-0.031l-0-0-0.136-0.327h-0.652l-0.136 0.327c-0.004 0.014-0.011 0.027-0.021 0.037l0-0c-0.011 0.008-0.025 0.013-0.040 0.013-0.001 0-0.002-0-0.003-0h-0.152l0.576-1.378h0.2l0.583 1.372zM17.496 17.809h0.544l-0.23-0.561c-0.015-0.035-0.029-0.078-0.041-0.122l-0.002-0.007c-0.008 0.026-0.015 0.051-0.022 0.073l-0.021 0.058-0.228 0.559zM19.443 18.184c0.036 0.002 0.072 0.002 0.108 0 0.035-0.003 0.066-0.009 0.097-0.017l-0.004 0.001c0.028-0.007 0.056-0.015 0.083-0.025 0.026-0.010 0.051-0.022 0.078-0.034v-0.31h-0.23c-0.001 0-0.002 0-0.003 0-0.011 0-0.021-0.004-0.029-0.011l0 0c-0.007-0.006-0.012-0.014-0.012-0.024 0-0 0-0.001 0-0.001v0-0.106h0.447v0.528c-0.070 0.048-0.151 0.086-0.237 0.111l-0.006 0.001c-0.041 0.012-0.089 0.022-0.139 0.028l-0.005 0c-0.050 0.006-0.107 0.009-0.165 0.009-0.001 0-0.002 0-0.003 0h0c-0.002 0-0.004 0-0.007 0-0.102 0-0.2-0.019-0.289-0.053l0.006 0.002c-0.089-0.034-0.166-0.083-0.23-0.144l0 0c-0.062-0.061-0.113-0.133-0.147-0.214l-0.002-0.004c-0.034-0.082-0.053-0.177-0.053-0.277 0-0.003 0-0.006 0-0.010v0c-0-0.003-0-0.006-0-0.008 0-0.101 0.019-0.197 0.054-0.285l-0.002 0.005c0.033-0.082 0.083-0.156 0.148-0.218 0.064-0.061 0.141-0.109 0.226-0.142l0.005-0.002c0.099-0.035 0.203-0.052 0.309-0.051 0.054 0 0.107 0.004 0.16 0.012 0.047 0.007 0.093 0.019 0.137 0.035 0.040 0.014 0.079 0.033 0.115 0.055s0.069 0.046 0.101 0.072l-0.056 0.085c-0.005 0.008-0.011 0.014-0.018 0.019l-0 0c-0.008 0.004-0.017 0.007-0.026 0.007h-0c-0.013-0-0.026-0.004-0.036-0.011l0 0c-0.023-0.012-0.041-0.022-0.059-0.034l0.003 0.002c-0.022-0.013-0.047-0.026-0.074-0.036l-0.003-0.001c-0.030-0.012-0.065-0.022-0.102-0.030l-0.004-0.001c-0.042-0.008-0.090-0.012-0.138-0.012-0.003 0-0.006 0-0.008 0h0c-0.002-0-0.004-0-0.007-0-0.077 0-0.151 0.014-0.22 0.040l0.004-0.001c-0.064 0.024-0.122 0.061-0.169 0.109-0.048 0.050-0.084 0.108-0.107 0.172-0.024 0.068-0.039 0.147-0.039 0.23s0.014 0.161 0.040 0.235l-0.002-0.005c0.025 0.065 0.064 0.124 0.115 0.174 0.047 0.047 0.105 0.084 0.168 0.109 0.073 0.024 0.151 0.033 0.228 0.027zM21.28 18.162h0.629v0.157h-0.822v-1.377h0.197l-0.005 1.221zM22.564 18.319h-0.197v-1.377h0.197v1.378zM23.297 16.948c0.012 0.006 0.022 0.015 0.030 0.025l0.842 1.038c-0.001-0.007-0.001-0.016-0.001-0.024s0-0.017 0.001-0.026l-0 0.001v-1.027h0.172v1.383h-0.099c-0.002 0-0.005 0-0.007 0-0.013 0-0.025-0.003-0.036-0.008l0.001 0c-0.012-0.007-0.022-0.016-0.031-0.026l-0-0-0.841-1.038v1.071h-0.165v-1.378h0.102c0 0 0 0 0 0 0.012 0 0.023 0.002 0.033 0.007l-0.001-0zM25.791 16.942v0.151h-0.698v0.455h0.566v0.146h-0.566v0.47h0.698v0.152h-0.901v-1.374h0.901zM5.143 8.433l8.75 2.352v8.242l-8.749-2.35v-8.243zM4.582 7.73v9.345l9.871 2.654v-9.345l-9.871-2.655z"></path>
<path d="M9.872 24.068l-9.872-2.656v-9.345l9.872 2.655v9.346z"></path>
<path d="M4.745 8.327l8.635 2.322-3.672 3.478-8.636-2.323 3.674-3.477zM4.582 7.73l-4.582 4.337 9.872 2.655 4.581-4.337-9.871-2.655zM10.427 23.543l4.025-3.811-4.025-1.083v4.895z"></path>
</symbol>
<symbol id="icon-close-button" viewBox="0 0 32 32">
<path d="M26.667 7.303l-1.97-1.97-7.808 7.808-7.808-7.808-1.97 1.97 7.808 7.808-7.808 7.808 1.97 1.97 7.808-7.808 7.808 7.808 1.97-1.97-7.808-7.808 7.808-7.808z"></path>
</symbol>
<symbol id="icon-email-1" viewBox="0 0 32 32">
<path d="M26.667 5.333h-21.333c-1.467 0-2.652 1.2-2.652 2.667l-0.014 16c0 1.467 1.2 2.667 2.667 2.667h21.333c1.467 0 2.667-1.2 2.667-2.667v-16c0-1.467-1.2-2.667-2.667-2.667zM26.133 11.001l-9.426 5.892c-0.201 0.126-0.446 0.2-0.708 0.2s-0.506-0.075-0.713-0.204l0.006 0.003-9.426-5.892c-0.336-0.201-0.557-0.562-0.557-0.975 0-0.625 0.507-1.132 1.132-1.132 0.233 0 0.449 0.070 0.629 0.19l-0.004-0.003 8.933 5.586 8.933-5.588c0.176-0.118 0.392-0.188 0.624-0.188 0.625 0 1.132 0.507 1.132 1.132 0 0.413-0.221 0.775-0.552 0.972l-0.005 0.003z"></path>
</symbol>
<symbol id="icon-email-2" viewBox="0 0 32 32">
<path d="M26.667 5.333h-21.333c-1.467 0-2.652 1.2-2.652 2.667l-0.014 16c0 1.467 1.2 2.667 2.667 2.667h21.333c1.467 0 2.667-1.2 2.667-2.667v-16c0-1.467-1.2-2.667-2.667-2.667zM26.133 11.001l-9.426 5.892c-0.201 0.126-0.446 0.2-0.708 0.2s-0.506-0.075-0.713-0.204l0.006 0.003-9.426-5.892c-0.336-0.201-0.557-0.562-0.557-0.975 0-0.625 0.507-1.132 1.132-1.132 0.233 0 0.449 0.070 0.629 0.19l-0.004-0.003 8.933 5.586 8.933-5.588c0.176-0.118 0.392-0.188 0.624-0.188 0.625 0 1.132 0.507 1.132 1.132 0 0.413-0.221 0.775-0.552 0.972l-0.005 0.003z"></path>
</symbol>
<symbol id="icon-email" viewBox="0 0 32 32">
<path d="M29 4h-26c-1.654 0-3 1.346-3 3v18c0 1.654 1.346 3 3 3h26c1.654 0 3-1.346 3-3v-18c0-1.654-1.346-3-3-3zM29 6c0.136 0 0.266 0.028 0.384 0.078l-13.384 11.6-13.384-11.6c0.113-0.049 0.245-0.078 0.384-0.078h26zM29 26h-26c-0.552 0-1-0.448-1-1v0-16.81l13.344 11.566c0.175 0.152 0.404 0.245 0.656 0.245s0.481-0.093 0.657-0.246l-0.001 0.001 13.344-11.566v16.81c0 0.552-0.448 1-1 1v0z"></path>
</symbol>
<symbol id="icon-facebook" viewBox="0 0 32 32">
<path d="M21.328 5.312h2.923v-5.088c-1.232-0.143-2.66-0.224-4.108-0.224-0.052 0-0.104 0-0.156 0l0.008-0c-4.213 0-7.099 2.65-7.099 7.52v4.48h-4.646v5.688h4.646v14.312h5.699v-14.31h4.459l0.707-5.688h-5.168v-3.922c0-1.643 0.443-2.768 2.734-2.768z"></path>
</symbol>
<symbol id="icon-instagram" viewBox="0 0 32 32">
<path d="M31.968 9.408c-0.074-1.701-0.349-2.869-0.744-3.882-0.423-1.111-1.052-2.058-1.847-2.837l-0.001-0.001c-0.78-0.792-1.724-1.419-2.778-1.827l-0.054-0.018c-1.021-0.394-2.182-0.667-3.883-0.742-1.712-0.082-2.256-0.101-6.602-0.101-4.344 0-4.888 0.019-6.595 0.094-1.701 0.074-2.869 0.349-3.88 0.742-1.112 0.424-2.060 1.054-2.839 1.85l-0.001 0.001c-0.791 0.78-1.418 1.724-1.825 2.778l-0.018 0.054c-0.395 1.019-0.669 2.181-0.744 3.882-0.082 1.712-0.101 2.256-0.101 6.602 0 4.344 0.019 4.888 0.094 6.595 0.075 1.701 0.35 2.869 0.744 3.882 0.426 1.11 1.055 2.057 1.849 2.837l0.001 0.001c0.8 0.813 1.77 1.443 2.832 1.843 1.019 0.395 2.182 0.67 3.882 0.744 1.707 0.075 2.251 0.094 6.595 0.094 4.346 0 4.89-0.019 6.595-0.094 1.701-0.074 2.869-0.349 3.882-0.742 2.157-0.85 3.833-2.526 4.664-4.628l0.019-0.055c0.394-1.019 0.669-2.182 0.744-3.882 0.075-1.707 0.093-2.251 0.093-6.595s-0.006-4.888-0.080-6.595zM29.088 22.474c-0.070 1.563-0.333 2.406-0.552 2.97-0.551 1.399-1.638 2.486-3.001 3.024l-0.036 0.013c-0.563 0.219-1.413 0.482-2.97 0.55-1.688 0.075-2.194 0.094-6.464 0.094-4.269 0-4.782-0.019-6.464-0.094-1.563-0.069-2.406-0.331-2.97-0.55-0.721-0.269-1.334-0.676-1.836-1.192l-0.001-0.001c-0.517-0.503-0.924-1.117-1.184-1.803l-0.011-0.034c-0.218-0.563-0.48-1.413-0.549-2.97-0.075-1.688-0.094-2.195-0.094-6.464 0-4.27 0.019-4.784 0.094-6.464 0.069-1.563 0.331-2.406 0.549-2.97 0.269-0.722 0.678-1.337 1.198-1.837l0.002-0.002c0.504-0.517 1.119-0.923 1.806-1.182l0.034-0.011c0.56-0.219 1.411-0.48 2.968-0.55 1.688-0.074 2.194-0.093 6.464-0.093 4.275 0 4.782 0.019 6.464 0.093 1.562 0.069 2.406 0.331 2.97 0.55 0.693 0.256 1.325 0.662 1.837 1.194 0.531 0.52 0.938 1.144 1.195 1.84 0.218 0.56 0.48 1.411 0.549 2.968 0.075 1.688 0.094 2.194 0.094 6.464 0 4.269-0.019 4.768-0.094 6.458z"></path>
<path d="M16.059 7.782c-4.539 0.002-8.218 3.682-8.219 8.221v0c0 0 0 0.001 0 0.002 0 4.541 3.681 8.222 8.222 8.222s8.222-3.681 8.222-8.222c0-4.541-3.681-8.222-8.222-8.222-0.001 0-0.001 0-0.002 0h0zM16.059 21.334c-2.945-0-5.332-2.388-5.332-5.333s2.388-5.333 5.333-5.333c0 0 0.001 0 0.001 0h-0c2.946 0 5.334 2.388 5.334 5.334s-2.388 5.334-5.334 5.334v0zM26.525 7.458c0 1.060-0.86 1.92-1.92 1.92s-1.92-0.86-1.92-1.92v0c0-1.060 0.86-1.92 1.92-1.92s1.92 0.86 1.92 1.92v0z"></path>
</symbol>
<symbol id="icon-linkedin" viewBox="0 0 32 32">
<path d="M31.992 32h0.008v-11.738c0-5.741-1.237-10.163-7.947-10.163-3.227 0-5.392 1.77-6.277 3.45h-0.093v-2.914h-6.365v21.363h6.627v-10.578c0-2.786 0.528-5.48 3.978-5.48 3.398 0 3.448 3.179 3.448 5.658v10.402h6.621zM0.528 10.635h6.635v21.365h-6.635v-21.365zM3.843 0c-2.123 0-3.843 1.721-3.843 3.843v0c0 2.12 1.722 3.878 3.843 3.878 2.12 0 3.842-1.757 3.842-3.878s-1.72-3.841-3.841-3.843h-0z"></path>
</symbol>
<symbol id="icon-menu-button" viewBox="0 0 32 32">
<path d="M6.4 11.734v-2.134h19.2v2.134h-19.2zM6.4 17.066h19.2v-2.133h-19.2v2.133zM6.4 22.4h19.2v-2.134h-19.2v2.134z"></path>
</symbol>
<symbol id="icon-telephone" viewBox="0 0 32 32">
<path d="M23 0h-14c-1.654 0-3 1.346-3 3v26c0 1.654 1.346 3 3 3h14c1.654 0 3-1.346 3-3v-26c0-1.654-1.346-3-3-3zM9 2h14c0.552 0 1 0.448 1 1v0 21h-16v-21c0-0.552 0.448-1 1-1v0zM23 30h-14c-0.552 0-1-0.448-1-1v0-3h16v3c0 0.552-0.448 1-1 1v0z"></path>
</symbol>
<symbol id="icon-twitter" viewBox="0 0 32 32">
<path d="M32 6.078c-1.1 0.493-2.376 0.857-3.713 1.028l-0.068 0.007c1.36-0.817 2.382-2.078 2.873-3.579l0.013-0.046c-1.197 0.722-2.591 1.273-4.076 1.573l-0.084 0.014c-1.2-1.279-2.9-2.076-4.787-2.076-3.622 0-6.558 2.936-6.558 6.558 0 0.001 0 0.003 0 0.004v-0c0 0.52 0.043 1.021 0.152 1.496-5.454-0.266-10.28-2.88-13.522-6.861-0.564 0.949-0.899 2.092-0.902 3.313v0.001c0 2.272 1.171 4.286 2.914 5.451-1.091-0.030-2.107-0.325-2.994-0.823l0.033 0.017v0.072c0.003 3.165 2.236 5.807 5.213 6.44l0.043 0.008c-0.499 0.136-1.071 0.215-1.662 0.215-0.020 0-0.041-0-0.061-0l0.003 0c-0.419 0-0.843-0.024-1.242-0.112 0.85 2.598 3.261 4.509 6.13 4.57-2.215 1.746-5.045 2.8-8.122 2.8-0.004 0-0.008 0-0.013 0h0.001c-0.018 0-0.040 0-0.062 0-0.531 0-1.055-0.034-1.569-0.099l0.061 0.006c2.826 1.846 6.287 2.944 10.004 2.944 0.021 0 0.042-0 0.063-0h-0.003c12.072 0 18.672-10 18.672-18.669 0-0.288-0.010-0.57-0.024-0.848 1.299-0.936 2.39-2.064 3.258-3.355l0.030-0.047z"></path>
</symbol>
</defs>
<defs>
<symbol id="icon-email-black" viewBox="0 0 32 32">
<path d="M26.667 5.333h-21.333c-1.467 0-2.653 1.2-2.653 2.667l-0.013 16c0 1.467 1.2 2.667 2.667 2.667h21.333c1.467 0 2.667-1.2 2.667-2.667v-16c0-1.467-1.2-2.667-2.667-2.667zM26.133 11l-9.427 5.893c-0.427 0.267-0.987 0.267-1.413 0l-9.427-5.893c-0.333-0.213-0.533-0.573-0.533-0.96 0-0.893 0.973-1.427 1.733-0.96l8.933 5.587 8.933-5.587c0.76-0.467 1.733 0.067 1.733 0.96 0 0.387-0.2 0.747-0.533 0.96z"></path>
</symbol>
<symbol id="icon-person-black" viewBox="0 0 32 32">
<path d="M16 16c2.947 0 5.333-2.387 5.333-5.333s-2.387-5.333-5.333-5.333c-2.947 0-5.333 2.387-5.333 5.333s2.387 5.333 5.333 5.333zM16 18.667c-3.56 0-10.667 1.787-10.667 5.333v1.333c0 0.733 0.6 1.333 1.333 1.333h18.667c0.733 0 1.333-0.6 1.333-1.333v-1.333c0-3.547-7.107-5.333-10.667-5.333z"></path>
</symbol>
<symbol id="icon-phone-black" viewBox="0 0 32 32">
<path d="M24.882 19.773l-3.268-0.373c-0.785-0.090-1.557 0.18-2.11 0.733l-2.367 2.367c-3.641-1.853-6.626-4.825-8.478-8.478l2.38-2.38c0.553-0.553 0.823-1.325 0.733-2.11l-0.373-3.242c-0.154-1.299-1.248-2.277-2.56-2.277h-2.226c-1.454 0-2.663 1.209-2.573 2.663 0.682 10.987 9.469 19.761 20.443 20.443 1.454 0.090 2.663-1.119 2.663-2.573v-2.226c0.013-1.299-0.965-2.393-2.264-2.547z"></path>
</symbol>
</defs>
<defs>
<symbol id="icon-icon-send" viewBox="0 0 32 32">
<path d="M32 0l-32 18 10.227 3.788 15.773-14.788-11.998 16.186 0.010 0.004-0.012-0.004v8.814l5.735-6.691 7.265 2.691 5-28z"></path>
</symbol>
</defs>
</svg>
